<?xml version="1.0" encoding="UTF-8" standalone="no"?>
<!DOCTYPE svg PUBLIC "-//W3C//DTD SVG 1.1//EN"
 "http://www.w3.org/Graphics/SVG/1.1/DTD/svg11.dtd">
<!-- Generated by graphviz version 2.36.0 (20140111.2315)
 -->
<!-- Title: %3 Pages: 1 -->
<svg width="175pt" height="216pt"
 viewBox="0.00 0.00 174.85 216.00" xmlns="http://www.w3.org/2000/svg" xmlns:xlink="http://www.w3.org/1999/xlink">
<g id="graph0" class="graph" transform="scale(1 1) rotate(0) translate(4 212)">
<title>%3</title>
<polygon fill="white" stroke="none" points="-4,4 -4,-212 170.849,-212 170.849,4 -4,4"/>
<!-- ENTRY_POINT -->
<g id="node1" class="node"><title>ENTRY_POINT</title>
<ellipse fill="none" stroke="black" cx="69" cy="-190" rx="69.3374" ry="18"/>
<text text-anchor="middle" x="69" y="-185.8" font-family="Times,serif" font-size="14.00">ENTRY_POINT</text>
</g>
<!-- DIALOG -->
<g id="node2" class="node"><title>DIALOG</title>
<ellipse fill="none" stroke="black" cx="69" cy="-104" rx="43.4994" ry="18"/>
<text text-anchor="middle" x="69" y="-99.8" font-family="Times,serif" font-size="14.00">DIALOG</text>
</g>
<!-- ENTRY_POINT&#45;&gt;DIALOG -->
<g id="edge1" class="edge"><title>ENTRY_POINT&#45;&gt;DIALOG</title>
<path fill="none" stroke="black" d="M69,-171.595C69,-160.257 69,-145.227 69,-132.315"/>
<polygon fill="black" stroke="black" points="72.5001,-132.095 69,-122.095 65.5001,-132.095 72.5001,-132.095"/>
<text text-anchor="middle" x="94.2656" y="-142.8" font-family="Times,serif" font-size="14.00">onCreate</text>
</g>
<!-- CLOSED -->
<g id="node3" class="node"><title>CLOSED</title>
<ellipse fill="none" stroke="black" cx="69" cy="-18" rx="44.2507" ry="18"/>
<text text-anchor="middle" x="69" y="-13.8" font-family="Times,serif" font-size="14.00">CLOSED</text>
</g>
<!-- DIALOG&#45;&gt;CLOSED -->
<g id="edge2" class="edge"><title>DIALOG&#45;&gt;CLOSED</title>
<path fill="none" stroke="black" d="M43.7661,-88.9503C36.3717,-83.4563 29.1882,-76.4276 25.1309,-68 19.972,-57.2845 26.2729,-47.1772 35.5625,-38.9569"/>
<polygon fill="black" stroke="black" points="37.7442,-41.6941 43.4915,-32.7935 33.4482,-36.1674 37.7442,-41.6941"/>
<text text-anchor="middle" x="59.4346" y="-56.8" font-family="Times,serif" font-size="14.00">closeDialog</text>
</g>
<!-- DIALOG&#45;&gt;CLOSED -->
<g id="edge3" class="edge"><title>DIALOG&#45;&gt;CLOSED</title>
<path fill="none" stroke="black" d="M82.6209,-86.5578C86.4197,-81.0062 90.0411,-74.548 92,-68 94.3862,-60.0237 92.3663,-51.6997 88.7041,-44.2239"/>
<polygon fill="black" stroke="black" points="91.5152,-42.1035 83.395,-35.2982 85.499,-45.682 91.5152,-42.1035"/>
<text text-anchor="middle" x="129.924" y="-56.8" font-family="Times,serif" font-size="14.00">cancelDialog</text>
</g>
</g>
</svg>
