<?xml version="1.0" encoding="UTF-8" standalone="no"?>
<!DOCTYPE svg PUBLIC "-//W3C//DTD SVG 1.1//EN"
 "http://www.w3.org/Graphics/SVG/1.1/DTD/svg11.dtd">
<!-- Generated by graphviz version 2.38.0 (20140413.2041)
 -->
<!-- Title: %3 Pages: 1 -->
<svg width="175pt" height="216pt"
 viewBox="0.00 0.00 175.41 216.00" xmlns="http://www.w3.org/2000/svg" xmlns:xlink="http://www.w3.org/1999/xlink">
<g id="graph0" class="graph" transform="scale(1 1) rotate(0) translate(4 212)">
<title>%3</title>
<polygon fill="white" stroke="none" points="-4,4 -4,-212 171.407,-212 171.407,4 -4,4"/>
<!-- ENTRY_POINT -->
<g id="node1" class="node"><title>ENTRY_POINT</title>
<ellipse fill="none" stroke="black" cx="69.5584" cy="-190" rx="69.6169" ry="18"/>
<text text-anchor="middle" x="69.5584" y="-185.8" font-family="Times,serif" font-size="14.00">ENTRY_POINT</text>
</g>
<!-- DIALOG -->
<g id="node2" class="node"><title>DIALOG</title>
<ellipse fill="none" stroke="black" cx="69.5584" cy="-104" rx="43.9992" ry="18"/>
<text text-anchor="middle" x="69.5584" y="-99.8" font-family="Times,serif" font-size="14.00">DIALOG</text>
</g>
<!-- ENTRY_POINT&#45;&gt;DIALOG -->
<g id="edge1" class="edge"><title>ENTRY_POINT&#45;&gt;DIALOG</title>
<path fill="none" stroke="black" d="M69.5584,-171.595C69.5584,-160.257 69.5584,-145.227 69.5584,-132.315"/>
<polygon fill="black" stroke="black" points="73.0585,-132.095 69.5584,-122.095 66.0585,-132.095 73.0585,-132.095"/>
<text text-anchor="middle" x="94.824" y="-142.8" font-family="Times,serif" font-size="14.00">onCreate</text>
</g>
<!-- CLOSED -->
<g id="node3" class="node"><title>CLOSED</title>
<ellipse fill="none" stroke="black" cx="69.5584" cy="-18" rx="44.501" ry="18"/>
<text text-anchor="middle" x="69.5584" y="-13.8" font-family="Times,serif" font-size="14.00">CLOSED</text>
</g>
<!-- DIALOG&#45;&gt;CLOSED -->
<g id="edge2" class="edge"><title>DIALOG&#45;&gt;CLOSED</title>
<path fill="none" stroke="black" d="M44.3245,-88.9503C36.9301,-83.4563 29.7466,-76.4276 25.6893,-68 20.5304,-57.2845 26.8313,-47.1772 36.1209,-38.9569"/>
<polygon fill="black" stroke="black" points="38.3026,-41.6941 44.0499,-32.7935 34.0066,-36.1674 38.3026,-41.6941"/>
<text text-anchor="middle" x="59.993" y="-56.8" font-family="Times,serif" font-size="14.00">closeDialog</text>
</g>
<!-- DIALOG&#45;&gt;CLOSED -->
<g id="edge3" class="edge"><title>DIALOG&#45;&gt;CLOSED</title>
<path fill="none" stroke="black" d="M83.1793,-86.5578C86.9781,-81.0062 90.5995,-74.548 92.5584,-68 94.9446,-60.0237 92.9247,-51.6997 89.2625,-44.2239"/>
<polygon fill="black" stroke="black" points="92.0736,-42.1035 83.9534,-35.2982 86.0574,-45.682 92.0736,-42.1035"/>
<text text-anchor="middle" x="130.483" y="-56.8" font-family="Times,serif" font-size="14.00">cancelDialog</text>
</g>
</g>
</svg>
