<?xml version="1.0" encoding="UTF-8" standalone="no"?>
<!DOCTYPE svg PUBLIC "-//W3C//DTD SVG 1.1//EN"
 "http://www.w3.org/Graphics/SVG/1.1/DTD/svg11.dtd">
<!-- Generated by graphviz version 2.38.0 (20140413.2041)
 -->
<!-- Title: %3 Pages: 1 -->
<svg width="216pt" height="216pt"
 viewBox="0.00 0.00 216.12 216.00" xmlns="http://www.w3.org/2000/svg" xmlns:xlink="http://www.w3.org/1999/xlink">
<g id="graph0" class="graph" transform="scale(1 1) rotate(0) translate(4 212)">
<title>%3</title>
<polygon fill="white" stroke="none" points="-4,4 -4,-212 212.123,-212 212.123,4 -4,4"/>
<!-- ENTRY_POINT -->
<g id="node1" class="node"><title>ENTRY_POINT</title>
<ellipse fill="none" stroke="black" cx="81.3641" cy="-190" rx="69.6169" ry="18"/>
<text text-anchor="middle" x="81.3641" y="-185.8" font-family="Times,serif" font-size="14.00">ENTRY_POINT</text>
</g>
<!-- SPLASH_SCREEN -->
<g id="node2" class="node"><title>SPLASH_SCREEN</title>
<ellipse fill="none" stroke="black" cx="81.3641" cy="-104" rx="81.2284" ry="18"/>
<text text-anchor="middle" x="81.3641" y="-99.8" font-family="Times,serif" font-size="14.00">SPLASH_SCREEN</text>
</g>
<!-- ENTRY_POINT&#45;&gt;SPLASH_SCREEN -->
<g id="edge1" class="edge"><title>ENTRY_POINT&#45;&gt;SPLASH_SCREEN</title>
<path fill="none" stroke="black" d="M81.3641,-171.595C81.3641,-160.257 81.3641,-145.227 81.3641,-132.315"/>
<polygon fill="black" stroke="black" points="84.8642,-132.095 81.3641,-122.095 77.8642,-132.095 84.8642,-132.095"/>
<text text-anchor="middle" x="106.63" y="-142.8" font-family="Times,serif" font-size="14.00">onCreate</text>
</g>
<!-- READY -->
<g id="node3" class="node"><title>READY</title>
<ellipse fill="none" stroke="black" cx="81.3641" cy="-18" rx="40.6335" ry="18"/>
<text text-anchor="middle" x="81.3641" y="-13.8" font-family="Times,serif" font-size="14.00">READY</text>
</g>
<!-- SPLASH_SCREEN&#45;&gt;READY -->
<g id="edge2" class="edge"><title>SPLASH_SCREEN&#45;&gt;READY</title>
<path fill="none" stroke="black" d="M81.3641,-85.5951C81.3641,-74.2572 81.3641,-59.2271 81.3641,-46.3153"/>
<polygon fill="black" stroke="black" points="84.8642,-46.0951 81.3641,-36.0952 77.8642,-46.0952 84.8642,-46.0951"/>
<text text-anchor="middle" x="144.743" y="-56.8" font-family="Times,serif" font-size="14.00">notify_timer1_timeout</text>
</g>
</g>
</svg>
