<?xml version="1.0" encoding="UTF-8" standalone="no"?>
<!DOCTYPE svg PUBLIC "-//W3C//DTD SVG 1.1//EN"
 "http://www.w3.org/Graphics/SVG/1.1/DTD/svg11.dtd">
<!-- Generated by graphviz version 2.38.0 (20140413.2041)
 -->
<!-- Title: %3 Pages: 1 -->
<svg width="581pt" height="302pt"
 viewBox="0.00 0.00 580.87 302.00" xmlns="http://www.w3.org/2000/svg" xmlns:xlink="http://www.w3.org/1999/xlink">
<g id="graph0" class="graph" transform="scale(1 1) rotate(0) translate(4 298)">
<title>%3</title>
<polygon fill="white" stroke="none" points="-4,4 -4,-298 576.867,-298 576.867,4 -4,4"/>
<!-- ENTRY_POINT -->
<g id="node1" class="node"><title>ENTRY_POINT</title>
<ellipse fill="none" stroke="black" cx="290.763" cy="-276" rx="69.6169" ry="18"/>
<text text-anchor="middle" x="290.763" y="-271.8" font-family="Times,serif" font-size="14.00">ENTRY_POINT</text>
</g>
<!-- WAITING_FOR_API -->
<g id="node2" class="node"><title>WAITING_FOR_API</title>
<ellipse fill="none" stroke="black" cx="290.763" cy="-190" rx="88.443" ry="18"/>
<text text-anchor="middle" x="290.763" y="-185.8" font-family="Times,serif" font-size="14.00">WAITING_FOR_API</text>
</g>
<!-- ENTRY_POINT&#45;&gt;WAITING_FOR_API -->
<g id="edge1" class="edge"><title>ENTRY_POINT&#45;&gt;WAITING_FOR_API</title>
<path fill="none" stroke="black" d="M290.763,-257.595C290.763,-246.257 290.763,-231.227 290.763,-218.315"/>
<polygon fill="black" stroke="black" points="294.264,-218.095 290.763,-208.095 287.264,-218.095 294.264,-218.095"/>
<text text-anchor="middle" x="316.029" y="-228.8" font-family="Times,serif" font-size="14.00">onCreate</text>
</g>
<!-- ERROR_DIALOG -->
<g id="node3" class="node"><title>ERROR_DIALOG</title>
<ellipse fill="none" stroke="black" cx="173.763" cy="-104" rx="77.8107" ry="18"/>
<text text-anchor="middle" x="173.763" y="-99.8" font-family="Times,serif" font-size="14.00">ERROR_DIALOG</text>
</g>
<!-- WAITING_FOR_API&#45;&gt;ERROR_DIALOG -->
<g id="edge2" class="edge"><title>WAITING_FOR_API&#45;&gt;ERROR_DIALOG</title>
<path fill="none" stroke="black" d="M207.193,-184.205C128.62,-178.822 21.1284,-168.848 8.00464,-154 -19.907,-122.42 32.6992,-110.743 85.8761,-106.635"/>
<polygon fill="black" stroke="black" points="86.406,-110.107 96.1434,-105.932 85.9276,-103.124 86.406,-110.107"/>
<text text-anchor="middle" x="72.1428" y="-142.8" font-family="Times,serif" font-size="14.00">notify_timer1_timeout</text>
</g>
<!-- READY -->
<g id="node4" class="node"><title>READY</title>
<ellipse fill="none" stroke="black" cx="400.763" cy="-18" rx="40.6335" ry="18"/>
<text text-anchor="middle" x="400.763" y="-13.8" font-family="Times,serif" font-size="14.00">READY</text>
</g>
<!-- WAITING_FOR_API&#45;&gt;READY -->
<g id="edge3" class="edge"><title>WAITING_FOR_API&#45;&gt;READY</title>
<path fill="none" stroke="black" d="M307.767,-172.115C312.699,-166.641 317.814,-160.338 321.763,-154 339.044,-126.271 333.445,-114.345 349.694,-86 358.382,-70.8448 370.079,-55.247 380.087,-42.9185"/>
<polygon fill="black" stroke="black" points="383.003,-44.8848 386.688,-34.9513 377.613,-40.4189 383.003,-44.8848"/>
<text text-anchor="middle" x="396.798" y="-99.8" font-family="Times,serif" font-size="14.00">receiveResponse</text>
</g>
<!-- WAITING_FOR_API&#45;&gt;READY -->
<g id="edge4" class="edge"><title>WAITING_FOR_API&#45;&gt;READY</title>
<path fill="none" stroke="black" d="M355.94,-177.712C388.164,-168.487 424.246,-151.853 443.763,-122 460.218,-96.8319 440.925,-64.3307 423.176,-42.6337"/>
<polygon fill="black" stroke="black" points="425.695,-40.1948 416.527,-34.8849 420.383,-44.7532 425.695,-40.1948"/>
<text text-anchor="middle" x="477.584" y="-99.8" font-family="Times,serif" font-size="14.00">checkApi</text>
</g>
<!-- WAITING_FOR_API&#45;&gt;READY -->
<g id="edge5" class="edge"><title>WAITING_FOR_API&#45;&gt;READY</title>
<path fill="none" stroke="black" d="M357.083,-178.079C414.81,-166.982 491.831,-147.769 508.763,-122 532.473,-85.9158 479.553,-53.1654 439.72,-34.6984"/>
<polygon fill="black" stroke="black" points="440.996,-31.4345 430.439,-30.538 438.133,-37.8222 440.996,-31.4345"/>
<text text-anchor="middle" x="543.315" y="-99.8" font-family="Times,serif" font-size="14.00">onResume</text>
</g>
<!-- ERROR_DIALOG&#45;&gt;WAITING_FOR_API -->
<g id="edge6" class="edge"><title>ERROR_DIALOG&#45;&gt;WAITING_FOR_API</title>
<path fill="none" stroke="black" d="M161.129,-121.772C155.133,-131.916 150.689,-144.651 157.894,-154 165.286,-163.591 187.712,-171.079 212.085,-176.625"/>
<polygon fill="black" stroke="black" points="211.35,-180.047 221.863,-178.73 212.824,-173.203 211.35,-180.047"/>
<text text-anchor="middle" x="192.198" y="-142.8" font-family="Times,serif" font-size="14.00">closeDialog</text>
</g>
<!-- ERROR_DIALOG&#45;&gt;WAITING_FOR_API -->
<g id="edge7" class="edge"><title>ERROR_DIALOG&#45;&gt;WAITING_FOR_API</title>
<path fill="none" stroke="black" d="M197.761,-121.199C206.33,-127.055 216.024,-133.76 224.763,-140 236.61,-148.458 249.494,-157.955 260.708,-166.32"/>
<polygon fill="black" stroke="black" points="258.81,-169.271 268.913,-172.461 263.004,-163.667 258.81,-169.271"/>
<text text-anchor="middle" x="280.688" y="-142.8" font-family="Times,serif" font-size="14.00">cancelDialog</text>
</g>
<!-- ERROR_DIALOG&#45;&gt;READY -->
<g id="edge8" class="edge"><title>ERROR_DIALOG&#45;&gt;READY</title>
<path fill="none" stroke="black" d="M188.085,-85.9152C198.082,-75.1128 212.344,-61.7692 227.694,-54 266.155,-34.5338 314.583,-25.8926 350.423,-22.0576"/>
<polygon fill="black" stroke="black" points="351.035,-25.5144 360.647,-21.0566 350.353,-18.5478 351.035,-25.5144"/>
<text text-anchor="middle" x="274.798" y="-56.8" font-family="Times,serif" font-size="14.00">receiveResponse</text>
</g>
</g>
</svg>
