<?xml version="1.0" encoding="UTF-8" standalone="no"?>
<!DOCTYPE svg PUBLIC "-//W3C//DTD SVG 1.1//EN"
 "http://www.w3.org/Graphics/SVG/1.1/DTD/svg11.dtd">
<!-- Generated by graphviz version 2.36.0 (20140111.2315)
 -->
<!-- Title: %3 Pages: 1 -->
<svg width="580pt" height="302pt"
 viewBox="0.00 0.00 579.86 302.00" xmlns="http://www.w3.org/2000/svg" xmlns:xlink="http://www.w3.org/1999/xlink">
<g id="graph0" class="graph" transform="scale(1 1) rotate(0) translate(4 298)">
<title>%3</title>
<polygon fill="white" stroke="none" points="-4,4 -4,-298 575.864,-298 575.864,4 -4,4"/>
<!-- ENTRY_POINT -->
<g id="node1" class="node"><title>ENTRY_POINT</title>
<ellipse fill="none" stroke="black" cx="290.761" cy="-276" rx="69.3374" ry="18"/>
<text text-anchor="middle" x="290.761" y="-271.8" font-family="Times,serif" font-size="14.00">ENTRY_POINT</text>
</g>
<!-- WAITING_FOR_API -->
<g id="node2" class="node"><title>WAITING_FOR_API</title>
<ellipse fill="none" stroke="black" cx="290.761" cy="-190" rx="88.3321" ry="18"/>
<text text-anchor="middle" x="290.761" y="-185.8" font-family="Times,serif" font-size="14.00">WAITING_FOR_API</text>
</g>
<!-- ENTRY_POINT&#45;&gt;WAITING_FOR_API -->
<g id="edge1" class="edge"><title>ENTRY_POINT&#45;&gt;WAITING_FOR_API</title>
<path fill="none" stroke="black" d="M290.761,-257.595C290.761,-246.257 290.761,-231.227 290.761,-218.315"/>
<polygon fill="black" stroke="black" points="294.261,-218.095 290.761,-208.095 287.261,-218.095 294.261,-218.095"/>
<text text-anchor="middle" x="316.026" y="-228.8" font-family="Times,serif" font-size="14.00">onCreate</text>
</g>
<!-- ERROR_DIALOG -->
<g id="node3" class="node"><title>ERROR_DIALOG</title>
<ellipse fill="none" stroke="black" cx="173.761" cy="-104" rx="77.3586" ry="18"/>
<text text-anchor="middle" x="173.761" y="-99.8" font-family="Times,serif" font-size="14.00">ERROR_DIALOG</text>
</g>
<!-- WAITING_FOR_API&#45;&gt;ERROR_DIALOG -->
<g id="edge2" class="edge"><title>WAITING_FOR_API&#45;&gt;ERROR_DIALOG</title>
<path fill="none" stroke="black" d="M207.19,-184.205C128.617,-178.822 21.1256,-168.848 8.00184,-154 -20.0032,-122.315 33.0492,-110.665 86.4069,-106.594"/>
<polygon fill="black" stroke="black" points="86.9644,-110.065 96.7056,-105.898 86.4924,-103.081 86.9644,-110.065"/>
<text text-anchor="middle" x="72.14" y="-142.8" font-family="Times,serif" font-size="14.00">notify_timer1_timeout</text>
</g>
<!-- READY -->
<g id="node4" class="node"><title>READY</title>
<ellipse fill="none" stroke="black" cx="400.761" cy="-18" rx="40.3497" ry="18"/>
<text text-anchor="middle" x="400.761" y="-13.8" font-family="Times,serif" font-size="14.00">READY</text>
</g>
<!-- WAITING_FOR_API&#45;&gt;READY -->
<g id="edge3" class="edge"><title>WAITING_FOR_API&#45;&gt;READY</title>
<path fill="none" stroke="black" d="M307.142,-172.014C311.912,-166.536 316.878,-160.256 320.761,-154 338.08,-126.094 333.179,-114.391 349.691,-86 358.473,-70.8995 370.177,-55.3054 380.165,-42.9652"/>
<polygon fill="black" stroke="black" points="383.083,-44.9284 386.748,-34.9879 377.684,-40.4729 383.083,-44.9284"/>
<text text-anchor="middle" x="396.795" y="-99.8" font-family="Times,serif" font-size="14.00">receiveResponse</text>
</g>
<!-- WAITING_FOR_API&#45;&gt;READY -->
<g id="edge4" class="edge"><title>WAITING_FOR_API&#45;&gt;READY</title>
<path fill="none" stroke="black" d="M355.937,-177.712C388.161,-168.487 424.243,-151.853 443.761,-122 460.215,-96.8319 440.922,-64.3307 423.173,-42.6337"/>
<polygon fill="black" stroke="black" points="425.692,-40.1948 416.524,-34.8849 420.38,-44.7532 425.692,-40.1948"/>
<text text-anchor="middle" x="477.581" y="-99.8" font-family="Times,serif" font-size="14.00">checkApi</text>
</g>
<!-- WAITING_FOR_API&#45;&gt;READY -->
<g id="edge5" class="edge"><title>WAITING_FOR_API&#45;&gt;READY</title>
<path fill="none" stroke="black" d="M356.802,-178.048C414.283,-166.931 490.964,-147.703 507.761,-122 531.266,-86.0317 478.832,-53.2464 439.363,-34.7407"/>
<polygon fill="black" stroke="black" points="440.719,-31.5127 430.166,-30.5711 437.828,-37.8881 440.719,-31.5127"/>
<text text-anchor="middle" x="542.312" y="-99.8" font-family="Times,serif" font-size="14.00">onResume</text>
</g>
<!-- ERROR_DIALOG&#45;&gt;WAITING_FOR_API -->
<g id="edge6" class="edge"><title>ERROR_DIALOG&#45;&gt;WAITING_FOR_API</title>
<path fill="none" stroke="black" d="M161.126,-121.772C155.131,-131.916 150.686,-144.651 157.891,-154 165.283,-163.591 187.709,-171.079 212.082,-176.625"/>
<polygon fill="black" stroke="black" points="211.347,-180.047 221.86,-178.73 212.821,-173.203 211.347,-180.047"/>
<text text-anchor="middle" x="192.195" y="-142.8" font-family="Times,serif" font-size="14.00">closeDialog</text>
</g>
<!-- ERROR_DIALOG&#45;&gt;WAITING_FOR_API -->
<g id="edge7" class="edge"><title>ERROR_DIALOG&#45;&gt;WAITING_FOR_API</title>
<path fill="none" stroke="black" d="M197.758,-121.199C206.327,-127.055 216.021,-133.76 224.761,-140 236.607,-148.458 249.491,-157.955 260.705,-166.32"/>
<polygon fill="black" stroke="black" points="258.807,-169.271 268.911,-172.461 263.001,-163.667 258.807,-169.271"/>
<text text-anchor="middle" x="280.685" y="-142.8" font-family="Times,serif" font-size="14.00">cancelDialog</text>
</g>
<!-- ERROR_DIALOG&#45;&gt;READY -->
<g id="edge8" class="edge"><title>ERROR_DIALOG&#45;&gt;READY</title>
<path fill="none" stroke="black" d="M188.083,-85.9152C198.08,-75.1128 212.341,-61.7692 227.691,-54 266.277,-34.4708 314.893,-25.8368 350.767,-22.0205"/>
<polygon fill="black" stroke="black" points="351.383,-25.4773 360.997,-21.0254 350.705,-18.5102 351.383,-25.4773"/>
<text text-anchor="middle" x="274.795" y="-56.8" font-family="Times,serif" font-size="14.00">receiveResponse</text>
</g>
</g>
</svg>
