<?xml version="1.0" encoding="UTF-8" standalone="no"?>
<!DOCTYPE svg PUBLIC "-//W3C//DTD SVG 1.1//EN"
 "http://www.w3.org/Graphics/SVG/1.1/DTD/svg11.dtd">
<!-- Generated by graphviz version 2.36.0 (20140111.2315)
 -->
<!-- Title: %3 Pages: 1 -->
<svg width="311pt" height="216pt"
 viewBox="0.00 0.00 310.91 216.00" xmlns="http://www.w3.org/2000/svg" xmlns:xlink="http://www.w3.org/1999/xlink">
<g id="graph0" class="graph" transform="scale(1 1) rotate(0) translate(4 212)">
<title>%3</title>
<polygon fill="white" stroke="none" points="-4,4 -4,-212 306.907,-212 306.907,4 -4,4"/>
<!-- ENTRY_POINT -->
<g id="node1" class="node"><title>ENTRY_POINT</title>
<ellipse fill="none" stroke="black" cx="76.9073" cy="-190" rx="69.3374" ry="18"/>
<text text-anchor="middle" x="76.9073" y="-185.8" font-family="Times,serif" font-size="14.00">ENTRY_POINT</text>
</g>
<!-- STAGE -->
<g id="node2" class="node"><title>STAGE</title>
<ellipse fill="none" stroke="black" cx="76.9073" cy="-104" rx="37.3486" ry="18"/>
<text text-anchor="middle" x="76.9073" y="-99.8" font-family="Times,serif" font-size="14.00">STAGE</text>
</g>
<!-- ENTRY_POINT&#45;&gt;STAGE -->
<g id="edge1" class="edge"><title>ENTRY_POINT&#45;&gt;STAGE</title>
<path fill="none" stroke="black" d="M76.9073,-171.595C76.9073,-160.257 76.9073,-145.227 76.9073,-132.315"/>
<polygon fill="black" stroke="black" points="80.4074,-132.095 76.9073,-122.095 73.4074,-132.095 80.4074,-132.095"/>
<text text-anchor="middle" x="90.5108" y="-142.8" font-family="Times,serif" font-size="14.00">click</text>
</g>
<!-- STAGE&#45;&gt;STAGE -->
<g id="edge2" class="edge"><title>STAGE&#45;&gt;STAGE</title>
<path fill="none" stroke="black" d="M113.663,-107.918C123.984,-107.746 131.907,-106.44 131.907,-104 131.907,-102.475 128.812,-101.393 123.971,-100.754"/>
<polygon fill="black" stroke="black" points="123.869,-97.2396 113.663,-100.082 123.414,-104.225 123.869,-97.2396"/>
<text text-anchor="middle" x="195.287" y="-99.8" font-family="Times,serif" font-size="14.00">notify_timer1_timeout</text>
</g>
<!-- STAGE&#45;&gt;STAGE -->
<g id="edge4" class="edge"><title>STAGE&#45;&gt;STAGE</title>
<path fill="none" stroke="black" d="M112.625,-109.685C166.856,-113.914 258.666,-112.019 258.666,-104 258.666,-96.4669 177.637,-94.3384 122.86,-97.6142"/>
<polygon fill="black" stroke="black" points="122.362,-94.14 112.625,-98.315 122.84,-101.124 122.362,-94.14"/>
<text text-anchor="middle" x="272.27" y="-99.8" font-family="Times,serif" font-size="14.00">click</text>
</g>
<!-- GAME_OVER -->
<g id="node3" class="node"><title>GAME_OVER</title>
<ellipse fill="none" stroke="black" cx="76.9073" cy="-18" rx="64.4597" ry="18"/>
<text text-anchor="middle" x="76.9073" y="-13.8" font-family="Times,serif" font-size="14.00">GAME_OVER</text>
</g>
<!-- STAGE&#45;&gt;GAME_OVER -->
<g id="edge3" class="edge"><title>STAGE&#45;&gt;GAME_OVER</title>
<path fill="none" stroke="black" d="M43.5076,-95.7767C28.4569,-90.6766 12.0875,-82.136 3.14851,-68 -5.72536,-53.9669 6.01558,-43.0533 22.5569,-35.1247"/>
<polygon fill="black" stroke="black" points="24.3219,-38.1766 32.14,-31.0262 21.5693,-31.7405 24.3219,-38.1766"/>
<text text-anchor="middle" x="67.2867" y="-56.8" font-family="Times,serif" font-size="14.00">notify_timer1_timeout</text>
</g>
<!-- STAGE&#45;&gt;GAME_OVER -->
<g id="edge5" class="edge"><title>STAGE&#45;&gt;GAME_OVER</title>
<path fill="none" stroke="black" d="M104.468,-91.6344C114.331,-86.063 124.37,-78.2932 129.907,-68 135.821,-57.0075 129.109,-47.1508 118.701,-39.2104"/>
<polygon fill="black" stroke="black" points="120.431,-36.1577 110.169,-33.5247 116.549,-41.9828 120.431,-36.1577"/>
<text text-anchor="middle" x="145.511" y="-56.8" font-family="Times,serif" font-size="14.00">click</text>
</g>
</g>
</svg>
